<svg width="512" height="512" xmlns="http://www.w3.org/2000/svg">

 <g>
  <title>background</title>
  <rect fill="none" id="canvas_background" height="402" width="582" y="-1" x="-1"/>
 </g>
 <g>
  <title>Layer 1</title>
  <path fill="#f1f1f1" id="svg_4" d="m256,48c-114.9,0 -208,93.1 -208,208s93.1,208 208,208c114.9,0 208,-93.1 208,-208s-93.1,-208 -208,-208zm0,398.7c-105.1,0 -190.7,-85.5 -190.7,-190.7s85.6,-190.7 190.7,-190.7s190.7,85.6 190.7,190.7s-85.6,190.7 -190.7,190.7z"/>
  <polygon fill="#f1f1f1" id="svg_6" points="264.1,128 247.3,128 247.3,247.9 128,247.9 128,264.7 247.3,264.7 247.3,384 264.1,384 264.1,264.7 384,264.7     384,247.9 264.1,247.9   "/>
 </g>
</svg>